<?xml version="1.0" encoding="UTF-8"?>
<svg version="1.1" xmlns="http://www.w3.org/2000/svg" width="512" height="512">
<path d="M0 0 C0.74813965 0.20367187 1.4962793 0.40734375 2.26708984 0.6171875 C24.27191164 6.73567045 42.47078451 18.43019171 59 34 C59.72574219 34.6496875 60.45148438 35.299375 61.19921875 35.96875 C78.80969116 52.40940647 89.61939777 75.1327596 96 98 C96.19352051 98.68400879 96.38704102 99.36801758 96.58642578 100.07275391 C101.714663 119.28772489 101.38583989 144.90105268 96 164 C95.77957031 164.79841309 95.55914062 165.59682617 95.33203125 166.41943359 C88.7347753 189.58400493 77.50129967 208.51441228 61 226 C60.32710937 226.73734375 59.65421875 227.4746875 58.9609375 228.234375 C34.73637432 253.81986869 -0.42232268 265.93914562 -35 267 C-44.69380566 267.15975578 -54.3898688 267.12044716 -64.08465958 267.10139394 C-67.85355699 267.09507079 -71.62245552 267.09454961 -75.39135742 267.09336853 C-82.50235832 267.0902813 -89.61334353 267.08210369 -96.72433758 267.07201904 C-104.8309609 267.06077612 -112.93758505 267.055327 -121.04421425 267.05032361 C-137.69615342 267.03991839 -154.34807102 267.02160602 -171 267 C-171 256.77 -171 246.54 -171 236 C-164.565 234.02 -164.565 234.02 -158 232 C-151.90530628 228.30884747 -146.79730948 223.72992867 -144 217 C-144.22248189 212.81864924 -145.81846046 210.66181836 -148.4375 207.5 C-164.59728499 185.88592492 -171.45695847 158.39738402 -171.3125 131.8125 C-171.31001251 131.08156128 -171.30752502 130.35062256 -171.30496216 129.59753418 C-171.24816832 118.81172014 -170.96757192 108.44127234 -168 98 C-167.66935547 96.80455566 -167.66935547 96.80455566 -167.33203125 95.58496094 C-160.73171088 72.40526438 -149.49241799 53.50867614 -133 36 C-132.3503125 35.27425781 -131.700625 34.54851562 -131.03125 33.80078125 C-114.59059353 16.19030884 -91.8672404 5.38060223 -69 -1 C-67.97398682 -1.29028076 -67.97398682 -1.29028076 -66.92724609 -1.58642578 C-46.19931435 -7.11845345 -20.47757629 -5.84686911 0 0 Z M-111 117 C-111 126.57 -111 136.14 -111 146 C-101.1 146 -91.2 146 -81 146 C-81 136.43 -81 126.86 -81 117 C-90.9 117 -100.8 117 -111 117 Z M-51 117 C-51 126.57 -51 136.14 -51 146 C-41.1 146 -31.2 146 -21 146 C-21 136.43 -21 126.86 -21 117 C-30.9 117 -40.8 117 -51 117 Z M9 117 C9 126.57 9 136.14 9 146 C18.9 146 28.8 146 39 146 C39 136.43 39 126.86 39 117 C29.1 117 19.2 117 9 117 Z " fill="#000000" transform="translate(292,95)"/>
<path d="M0 0 C0.65194336 0.22381348 1.30388672 0.44762695 1.97558594 0.67822266 C25.53463995 8.95790069 46.4128884 22.54062354 65 39 C65.9178125 39.79535156 66.835625 40.59070313 67.78125 41.41015625 C72.96901791 45.96507898 77.62578059 50.66537314 82 56 C82.62962646 56.74515869 82.62962646 56.74515869 83.27197266 57.50537109 C115 95.0823913 115 95.0823913 115 110 C116.76089966 109.96072388 116.76089966 109.96072388 118.55737305 109.9206543 C122.97237587 109.82917634 127.38729759 109.77240123 131.80297852 109.7253418 C133.70286207 109.70041738 135.60265196 109.66646476 137.50219727 109.62280273 C154.6241359 109.2395094 166.7959997 111.39808383 179.671875 123.58203125 C187.31467955 131.67788865 191.12748225 141.64332769 191.19287109 152.59155273 C191.20104858 153.35154068 191.20922607 154.11152863 191.21765137 154.89454651 C191.24243985 157.40755445 191.25901135 159.92050582 191.2734375 162.43359375 C191.28142302 163.72765986 191.28142302 163.72765986 191.28956985 165.04786873 C191.31628273 169.62101476 191.33565702 174.19413377 191.35009766 178.76733398 C191.36339058 182.53158112 191.39115925 186.2952802 191.43212891 190.05932617 C191.48178252 194.62222562 191.5062592 199.18463137 191.51332474 203.74778938 C191.51998673 205.47594661 191.5350748 207.20409503 191.55921555 208.93209648 C191.77246234 225.13036433 188.65787915 236.87050467 177.16015625 248.9296875 C163.99784092 261.47291642 146.75471226 261.32282663 129.6875 261.125 C128.15690698 261.11493778 126.62630746 261.10581773 125.09570312 261.09765625 C121.3969973 261.07592788 117.69854231 261.04158181 114 261 C113.88084229 261.72888428 113.76168457 262.45776855 113.63891602 263.20874023 C112.99867248 266.00579957 112.09866957 268.1224636 110.77734375 270.66015625 C110.32552734 271.53019287 109.87371094 272.40022949 109.40820312 273.29663086 C108.92287109 274.20936768 108.43753906 275.12210449 107.9375 276.0625 C107.43798828 277.00552979 106.93847656 277.94855957 106.42382812 278.92016602 C102.66514082 285.93031084 98.73027817 292.59181183 94 299 C93.6090918 299.53077148 93.21818359 300.06154297 92.81542969 300.60839844 C81.87690591 315.32583903 69.43553274 328.66871848 55 340 C54.38382812 340.48533203 53.76765625 340.97066406 53.1328125 341.47070312 C34.58290834 355.83741461 13.29129158 365.92067773 -9 373 C-10.00305176 373.32025146 -10.00305176 373.32025146 -11.02636719 373.64697266 C-14.22076245 374.61884835 -16.60933738 375 -20 375 C-19.96072388 376.26106567 -19.96072388 376.26106567 -19.9206543 377.54760742 C-19.83432095 380.73276155 -19.77222174 383.91731064 -19.7253418 387.10327148 C-19.70053284 388.46968471 -19.66667288 389.83597019 -19.62280273 391.2019043 C-19.18454719 405.22092563 -22.27487452 416.64548227 -32 427 C-41.39349758 436.8522034 -52.5434678 440.42827169 -66 441 C-78.96169261 440.54183299 -89.50606474 435.32124465 -98.80859375 426.421875 C-106.86879424 417.51398854 -110.59160479 407.1574631 -110.5 395.25 C-110.49427979 394.37819092 -110.48855957 393.50638184 -110.48266602 392.6081543 C-110.16473121 381.01798562 -106.10962796 371.33051277 -98 363 C-89.46519456 354.95371878 -80.13389019 350.19453601 -68.36328125 349.640625 C-27.51937286 347.42658488 10.84169306 336.51702551 42 309 C42.97453125 308.15824219 43.9490625 307.31648438 44.953125 306.44921875 C74.76235111 280.28589767 94.17282426 241.43120208 98 202 C98.2363132 196.39830298 98.24567866 190.7936638 98.25 185.1875 C98.25067474 184.40377014 98.25134949 183.62004028 98.25204468 182.81256104 C98.23584938 170.97727806 97.82648137 159.54795684 95 148 C94.83371094 147.29891113 94.66742188 146.59782227 94.49609375 145.87548828 C91.67325899 134.35152675 87.17055142 123.65196737 82 113 C81.51442627 111.99791504 81.51442627 111.99791504 81.01904297 110.97558594 C62.2627474 72.85272387 28.35188843 43.85508252 -11.58203125 29.75390625 C-53.84548201 15.64572018 -99.48350103 19.15433007 -139.4375 38.75 C-170.65822796 54.72541014 -194.97960452 80.01898411 -211 111 C-211.31952637 111.61311035 -211.63905273 112.2262207 -211.96826172 112.85791016 C-217.25661671 123.14988384 -221.0379955 133.82348558 -224 145 C-224.21317871 145.80163574 -224.42635742 146.60327148 -224.64599609 147.42919922 C-233.79437316 183.71074854 -226.84868154 220.89380508 -214.74975586 255.50610352 C-214 258 -214 258 -214 261 C-221.98964564 261.0466646 -229.97923283 261.08204041 -237.96898174 261.10362434 C-241.68029842 261.11399175 -245.39152078 261.12801946 -249.1027832 261.15087891 C-252.69490782 261.17286208 -256.28694263 261.18462133 -259.87912941 261.18975449 C-261.89338268 261.19516258 -263.90760062 261.21073301 -265.92179871 261.22659302 C-283.19072782 261.22866286 -296.98770661 258.68712176 -309.80859375 246.421875 C-320.41232839 234.70295259 -321.47621587 222.12199748 -321.46875 207.078125 C-321.47586474 205.32850912 -321.48356563 203.57889554 -321.49182129 201.82928467 C-321.50522279 198.17128 -321.50685511 194.51349099 -321.50097656 190.85546875 C-321.49509339 186.20106676 -321.52563467 181.54771252 -321.56609344 176.89351273 C-321.59213075 173.28145922 -321.59483329 169.66965239 -321.59120178 166.05751801 C-321.59287898 164.34334437 -321.60238431 162.62915756 -321.62034607 160.91507721 C-321.76779059 145.10309032 -318.64988877 132.96927043 -307.34765625 121.29296875 C-298.76715897 113.31815363 -288.16976523 109.74341069 -276.6640625 109.5859375 C-275.78471039 109.56657135 -274.90535828 109.5472052 -273.99935913 109.5272522 C-271.20800282 109.46777185 -268.41660457 109.4211979 -265.625 109.375 C-263.72524306 109.33679115 -261.8255029 109.29773774 -259.92578125 109.2578125 C-255.2839915 109.16209643 -250.64212071 109.0779496 -246 109 C-245.71914551 108.41210693 -245.43829102 107.82421387 -245.14892578 107.21850586 C-239.21330483 94.8716919 -233.09716113 83.0684784 -225 72 C-224.59426758 71.44022461 -224.18853516 70.88044922 -223.77050781 70.30371094 C-217.72221166 62.02027918 -211.07311961 54.41840504 -204 47 C-203.27296875 46.22011719 -202.5459375 45.44023438 -201.796875 44.63671875 C-168.62705599 10.05411115 -119.15472919 -9.32198031 -71.73828125 -10.93359375 C-47.1284944 -11.42776618 -23.277804 -8.06487335 0 0 Z " fill="#000000" transform="translate(321,41)"/>
</svg>
