<?xml version="1.0" standalone="no"?>
<!DOCTYPE svg PUBLIC "-//W3C//DTD SVG 20010904//EN"
 "http://www.w3.org/TR/2001/REC-SVG-20010904/DTD/svg10.dtd">
<svg version="1.0" xmlns="http://www.w3.org/2000/svg"
 width="735.000000pt" height="539.000000pt" viewBox="0 0 735.000000 539.000000"
 preserveAspectRatio="xMidYMid meet">

<g transform="translate(0.000000,539.000000) scale(0.100000,-0.100000)"
fill="#000000" stroke="none">
<path d="M0 2695 l0 -2695 3675 0 3675 0 0 2695 0 2695 -3675 0 -3675 0 0
-2695z m3228 1946 c11 -7 11 -9 -1 -14 -16 -6 -27 0 -27 15 0 10 11 10 28 -1z
m70 -73 c14 -19 -3 -56 -33 -70 -19 -8 -22 -14 -13 -20 10 -6 9 -12 -6 -23
-29 -22 -48 -19 -44 8 2 17 -2 23 -24 25 -15 2 -40 -4 -57 -12 -16 -9 -38 -16
-48 -15 -10 0 6 9 35 20 36 14 56 29 62 45 15 39 105 69 128 42z m377 -19 c6
-6 3 -15 -6 -25 -13 -13 -31 -14 -105 -8 -81 7 -86 8 -50 16 22 5 44 12 50 17
26 21 89 21 111 0z m-720 -54 c0 -16 -6 -20 -36 -19 -32 1 -35 -1 -31 -23 3
-16 0 -23 -12 -23 -9 0 -16 -4 -16 -10 0 -5 6 -10 14 -10 20 0 46 -39 46 -67
0 -12 -8 -26 -17 -32 -17 -9 -17 -10 2 -16 81 -27 98 -43 109 -100 4 -25 0
-34 -24 -53 -21 -16 -28 -19 -24 -8 3 9 1 16 -5 16 -6 0 -10 -5 -8 -12 3 -15
-44 -28 -60 -16 -7 5 -14 5 -18 -2 -12 -20 4 -24 45 -13 28 7 40 7 40 0 0 -6
12 1 28 15 44 41 60 42 93 7 16 -17 29 -37 29 -44 0 -7 10 -15 21 -18 32 -9
79 3 79 20 0 7 7 16 16 20 13 5 11 10 -13 29 -24 20 -26 25 -13 34 8 6 27 13
43 17 15 3 27 11 27 18 0 29 105 48 116 21 3 -8 1 -24 -5 -35 -15 -26 4 -36
84 -44 33 -4 78 -13 100 -22 l40 -15 -40 7 c-22 4 -85 8 -141 8 -95 0 -99 1
-80 17 l21 17 -21 21 c-22 23 -54 18 -54 -8 0 -14 1 -14 13 1 8 11 17 14 26 8
17 -11 6 -30 -26 -42 -24 -9 -25 -11 -9 -28 15 -17 15 -19 0 -32 -30 -25 -167
-69 -216 -69 l-27 0 17 31 c17 30 17 30 -11 54 -15 13 -34 22 -41 19 -28 -11
-31 -54 -4 -54 7 0 7 5 -1 14 -15 18 16 31 35 15 22 -18 17 -36 -17 -60 -27
-19 -46 -23 -128 -24 -69 -1 -113 -7 -156 -23 -33 -11 -60 -20 -61 -19 -1 1
-5 12 -8 24 -6 17 -4 22 6 18 8 -3 31 10 51 30 l37 36 0 -31 c0 -30 1 -31 33
-25 76 15 78 18 47 58 -26 32 -25 45 3 75 l22 25 -23 -12 c-13 -7 -25 -25 -29
-42 -5 -24 -9 -28 -27 -23 -11 4 -27 11 -33 16 -10 8 -13 4 -13 -14 0 -54 -59
-94 -99 -69 -12 8 -12 12 -2 25 16 19 9 30 -29 46 -41 17 -91 2 -153 -45 -25
-19 -48 -35 -51 -35 -3 0 -6 11 -6 24 0 42 43 81 109 99 62 17 76 31 42 40
-39 10 -36 127 4 127 9 0 12 6 9 15 -7 18 40 38 73 32 19 -3 21 -1 13 14 -17
31 -11 60 20 89 20 19 37 26 50 23 12 -3 29 2 40 12 18 16 25 17 59 5 34 -11
42 -10 62 4 31 22 64 17 64 -9z m872 -21 c-11 -7 -157 -10 -157 -3 0 5 10 9
23 9 13 0 32 6 42 14 15 11 24 11 56 -3 20 -9 37 -16 36 -17z m-1352 16 c-3
-5 -15 -10 -26 -10 -11 0 -17 5 -14 10 3 6 15 10 26 10 11 0 17 -4 14 -10z
m1077 -32 c10 -5 21 -21 25 -36 3 -15 13 -32 21 -37 8 -7 12 -23 10 -40 -2
-22 -12 -34 -37 -47 -38 -19 -33 -23 38 -31 24 -3 51 -13 60 -23 15 -16 15
-16 -4 -9 -11 4 -46 9 -77 12 -48 5 -57 9 -60 27 -4 27 -53 46 -71 27 -10 -11
-8 -13 9 -9 25 6 57 -9 49 -23 -8 -12 -82 -12 -90 1 -3 6 -20 10 -36 10 -17 0
-28 4 -24 9 3 5 -5 12 -17 14 -13 2 -9 3 9 1 21 -2 33 3 37 13 5 12 -1 14 -36
8 -24 -4 -53 -13 -65 -21 -12 -8 -30 -14 -40 -14 -9 0 -27 -10 -39 -21 -15
-14 -29 -19 -40 -15 -15 6 -10 13 25 48 39 37 48 41 98 42 46 1 58 5 72 25 24
35 85 97 102 104 16 6 55 -1 81 -15z m408 -3 c10 -12 10 -15 -3 -15 -8 0 -23
3 -32 6 -13 5 -14 8 -3 15 18 12 24 11 38 -6z m-250 -14 c0 -5 -8 -12 -17 -15
-10 -3 -4 -4 12 -1 46 6 315 -93 315 -116 0 -21 -54 -10 -135 27 -50 23 -118
50 -150 59 -67 20 -96 41 -67 48 30 8 42 7 42 -2z m-420 -21 c11 -7 6 -10 -20
-10 -26 0 -31 3 -20 10 8 5 17 10 20 10 3 0 12 -5 20 -10z m-96 -7 c4 -4 -24
-15 -61 -23 -62 -15 -92 -16 -79 -3 4 4 85 25 127 32 3 1 9 -2 13 -6z m1998
-40 c26 -25 28 -32 27 -102 -1 -60 -3 -69 -9 -43 -9 38 -48 85 -66 78 -14 -5
-34 13 -34 31 0 7 9 13 21 13 11 0 18 4 15 9 -7 10 3 41 12 41 3 0 19 -12 34
-27z m-2179 8 c22 -3 -10 -51 -34 -51 -10 0 -10 -3 -1 -12 8 -8 15 -8 25 1 16
12 117 41 146 41 19 0 35 -23 24 -34 -3 -3 -15 0 -27 6 -19 10 -20 10 -6 -7
13 -16 12 -20 -13 -41 -28 -24 -53 -33 -42 -14 9 15 -18 12 -41 -4 -28 -21
-15 -26 35 -15 24 5 46 8 48 5 2 -2 -19 -9 -47 -16 -49 -12 -52 -11 -67 10 -9
12 -33 30 -55 40 -25 11 -36 20 -28 25 7 5 10 19 6 40 -6 32 -6 32 31 29 21
-1 41 -2 46 -3z m785 -81 c68 -11 129 -20 135 -20 7 0 5 -4 -3 -9 -9 -5 -51
-1 -105 10 -49 10 -108 19 -131 19 -22 0 -49 7 -60 15 -18 15 -18 16 11 11 17
-3 85 -15 153 -26z m697 -135 c77 -52 185 -133 239 -182 103 -91 206 -204 206
-225 0 -7 -7 -2 -16 10 -8 12 -20 19 -26 16 -8 -5 -9 -1 -5 10 4 9 3 15 -2 12
-4 -3 -48 34 -97 81 -199 193 -321 287 -528 403 -74 42 -66 45 14 5 41 -21
138 -79 215 -130z m-2118 99 c7 -19 -19 -42 -57 -50 -14 -3 -39 -12 -57 -19
-27 -12 -31 -12 -27 -1 3 8 17 17 30 20 14 4 28 14 31 24 11 30 25 42 50 42
13 0 26 -7 30 -16z m1008 7 c31 -7 19 -9 -60 -9 -64 0 -91 3 -75 8 33 11 86
11 135 1z m799 -52 c167 -105 290 -205 446 -365 203 -208 297 -334 391 -524
72 -144 106 -402 79 -592 -17 -119 -31 -133 -28 -27 2 48 6 85 11 82 4 -2 7
37 7 88 0 51 -3 90 -6 87 -3 -4 -6 -34 -6 -68 -1 -34 -6 -77 -12 -94 -9 -26
-11 -2 -12 124 -1 147 -3 160 -32 244 -18 49 -30 91 -27 94 2 2 -5 14 -16 25
-11 12 -19 28 -18 37 3 28 -1 41 -10 36 -5 -3 -21 14 -35 38 -14 25 -32 51
-39 58 -8 7 -25 32 -40 54 -14 22 -31 47 -39 55 -7 8 -41 48 -75 90 -82 101
-172 192 -327 329 -120 107 -315 252 -357 265 -33 11 -21 23 20 21 27 -1 64
-18 125 -57z m-174 26 c17 -9 30 -17 30 -20 0 -6 -63 16 -74 26 -16 15 12 10
44 -6z m-260 -55 c0 -16 -17 -19 -35 -6 -24 18 -11 40 16 26 10 -6 19 -15 19
-20z m223 -1 c32 -9 52 -29 28 -29 -13 0 -81 29 -81 35 0 7 11 6 53 -6z m-795
-21 c-2 -7 -14 -18 -28 -24 -19 -9 -29 -8 -49 5 l-25 16 44 6 c25 3 48 7 53 7
4 1 6 -4 5 -10z m382 2 l55 -7 -55 -1 c-30 0 -80 3 -110 8 l-55 7 55 1 c30 0
80 -3 110 -8z m215 -10 c3 -5 1 -10 -4 -10 -6 0 -11 5 -11 10 0 6 2 10 4 10 3
0 8 -4 11 -10z m143 -55 c15 5 162 -74 162 -87 0 -15 -15 -8 -83 37 -68 45
-92 56 -69 33 22 -22 12 -26 -30 -11 -26 9 -59 12 -83 9 -22 -3 -47 -2 -55 3
-12 8 -11 14 9 35 l23 24 55 -24 c31 -14 63 -22 71 -19z m-176 13 c-7 -7 -12
-8 -12 -2 0 6 3 14 7 17 3 4 9 5 12 2 2 -3 -1 -11 -7 -17z m1517 -24 c3 -16 1
-17 -13 -5 -19 16 -21 34 -3 29 6 -3 14 -13 16 -24z m-3104 6 c-3 -5 -11 -10
-16 -10 -6 0 -7 5 -4 10 3 6 11 10 16 10 6 0 7 -4 4 -10z m481 -28 c1 -7 0 -8
-3 -2 -9 18 -21 11 -16 -10 4 -15 0 -20 -15 -20 -12 0 -23 -4 -26 -9 -3 -4 5
-6 17 -4 13 3 33 -4 47 -15 22 -18 23 -22 12 -60 -18 -59 -67 -69 -90 -17 -12
26 -4 33 15 14 7 -7 23 -9 38 -5 21 5 26 12 23 33 -2 15 -9 29 -17 31 -10 3
-12 0 -7 -14 13 -33 12 -38 -12 -42 -12 -2 -24 3 -28 11 -7 20 -73 13 -123
-12 -42 -22 -89 -75 -117 -133 -9 -21 -22 -34 -27 -31 -6 3 -7 1 -3 -5 4 -7 2
-12 -3 -12 -6 0 -11 -7 -11 -15 0 -24 20 -18 30 9 7 19 14 23 30 19 21 -6 21
-6 -6 -29 -60 -52 -87 -12 -39 59 14 20 23 37 21 37 -3 0 -17 -17 -31 -37 -29
-43 -33 -88 -8 -101 14 -9 14 -11 -6 -22 -19 -9 -26 -9 -41 5 -15 13 -18 30
-17 82 0 56 4 67 25 84 14 10 35 19 48 19 22 0 30 8 110 98 40 47 91 77 151
91 23 5 29 9 16 10 -12 1 -34 -4 -50 -9 -27 -10 -27 -9 -8 5 24 19 117 17 121
-3z m788 9 c3 -5 -10 -11 -30 -13 -34 -4 -50 3 -37 16 10 9 61 7 67 -3z m186
-27 l25 -15 -35 6 c-39 6 -66 25 -34 25 10 -1 30 -8 44 -16z m365 -15 c4 -6 5
-13 2 -16 -8 -7 -47 7 -47 18 0 13 37 11 45 -2z m1251 -67 c-10 -9 -15 2 -21
39 l-5 34 15 -34 c9 -18 14 -36 11 -39z m-2913 25 c-6 -24 -31 -57 -43 -57
-13 0 -21 31 -14 52 6 19 42 40 56 32 3 -2 4 -14 1 -27z m1885 -59 c172 -130
290 -260 428 -468 125 -191 167 -301 209 -549 38 -227 40 -254 24 -249 -8 3
-14 18 -15 34 -1 16 -5 61 -10 99 -8 68 -9 69 -15 30 -6 -32 -7 -28 -4 20 3
71 -34 266 -69 358 -13 36 -45 102 -71 147 -73 129 -192 296 -203 286 -3 -3 2
-14 10 -23 8 -10 18 -25 23 -33 4 -8 -4 -1 -18 15 -15 17 -24 37 -22 45 5 15
-104 129 -195 205 l-36 30 36 -36 c19 -19 41 -44 49 -55 8 -10 -15 10 -50 46
-35 35 -67 63 -71 62 -5 -1 -8 2 -8 7 0 5 -22 24 -50 42 -42 29 -65 59 -44 59
3 0 49 -33 102 -72z m-238 3 c-8 -5 -43 -17 -77 -26 -54 -15 -65 -16 -80 -4
-14 12 -7 15 58 25 98 15 119 16 99 5z m980 -29 c0 -21 -2 -24 -10 -12 -13 20
-13 53 0 45 6 -3 10 -18 10 -33z m-2760 15 c0 -8 -9 -22 -20 -32 -17 -16 -20
-16 -20 -2 0 26 11 47 26 47 8 0 14 -6 14 -13z m1820 -24 c-32 -42 -58 -52
-127 -53 -50 0 -61 3 -57 14 6 17 133 62 177 65 l28 1 -21 -27z m-1740 8 c0
-5 -7 -11 -15 -15 -15 -5 -20 5 -8 17 9 10 23 9 23 -2z m220 -36 c-7 -9 -15
-13 -19 -10 -3 3 1 10 9 15 21 14 24 12 10 -5z m957 -16 c-27 -14 -47 -18 -72
-13 -69 13 -34 27 80 32 l30 1 -38 -20z m-1350 -44 c1 -27 -3 -35 -20 -41 -12
-4 -37 -20 -55 -36 -19 -16 -51 -40 -72 -53 -45 -29 -62 -77 -36 -103 8 -9 19
-12 23 -8 5 5 2 11 -4 13 -19 7 -16 48 5 65 34 30 43 31 37 6 -13 -53 -12
-143 2 -156 7 -7 13 -23 13 -35 0 -21 -1 -21 -25 5 -14 15 -25 34 -25 42 0 12
-7 13 -36 4 -31 -8 -39 -7 -59 12 -56 52 14 160 123 189 15 4 27 14 27 22 0
12 82 106 95 108 3 1 6 -15 7 -34z m1281 16 c26 -16 -35 -51 -89 -51 -27 0
-49 3 -49 7 0 4 10 17 22 30 22 24 88 32 116 14z m572 -7 c0 -3 -14 -23 -32
-45 -37 -45 -59 -49 -120 -18 l-42 22 29 23 c25 20 42 24 98 24 37 0 67 -3 67
-6z m-626 -73 c-11 -12 -160 -71 -176 -71 -7 0 5 18 27 40 34 35 44 39 94 42
62 3 69 2 55 -11z m471 -3 c62 -30 64 -47 14 -110 -50 -64 -66 -75 -84 -57
-11 11 -65 133 -65 146 0 7 65 43 77 43 7 0 33 -10 58 -22z m1209 0 c17 -24
21 -58 8 -58 -9 0 -42 54 -42 69 0 18 18 12 34 -11z m283 -25 c-3 -10 -5 -4
-5 12 0 17 2 24 5 18 2 -7 2 -21 0 -30z m-2867 9 c0 -13 -30 -52 -41 -52 -14
0 -11 27 7 44 16 17 34 21 34 8z m916 -16 c8 -8 11 -17 7 -19 -5 -3 -87 -48
-183 -102 -96 -54 -179 -100 -185 -103 -22 -13 88 108 120 133 25 19 183 92
223 104 2 1 10 -5 18 -13z m1635 -3 c13 -16 12 -17 -3 -4 -10 7 -18 15 -18 17
0 8 8 3 21 -13z m-1292 -74 c17 -44 31 -91 31 -104 0 -13 -21 -52 -48 -87
-152 -201 -215 -278 -223 -272 -20 12 -6 89 56 298 36 121 66 220 68 221 5 5
63 23 74 24 6 1 25 -35 42 -80z m-289 51 c9 -6 11 -12 5 -18 -27 -23 -213
-168 -320 -249 -66 -50 -149 -116 -185 -147 -58 -50 -185 -115 -198 -101 -12
12 195 236 253 274 48 31 418 249 425 250 3 0 12 -4 20 -9z m150 -10 c0 -18
-132 -445 -140 -453 -21 -23 -81 -24 -150 -4 -110 32 -110 32 71 259 85 106
158 196 164 200 15 11 55 10 55 -2z m-95 -22 c-50 -73 -302 -360 -333 -381
-27 -18 -62 -28 -130 -37 -51 -6 -95 -10 -98 -8 -10 10 23 38 426 357 113 89
170 118 135 69z m1010 12 c3 -6 -1 -7 -9 -4 -18 7 -21 14 -7 14 6 0 13 -4 16
-10z m652 -146 c102 -195 142 -302 159 -426 23 -175 14 -393 -18 -423 -8 -7
-9 -4 -4 10 33 93 18 439 -25 560 -28 76 -94 215 -159 334 -29 51 -46 91 -39
89 7 -2 46 -67 86 -144z m-458 15 c31 -34 77 -91 104 -128 26 -36 56 -69 67
-73 23 -9 26 0 5 16 -10 7 -12 16 -5 26 13 20 22 7 30 -42 4 -24 9 -49 11 -57
7 -24 -49 -24 -62 0 -6 11 -16 18 -24 15 -23 -9 -27 8 -5 24 l22 16 -48 69
c-27 38 -75 97 -107 132 -33 35 -56 63 -52 63 4 0 33 -28 64 -61z m-74 -31 c9
-16 15 -28 12 -28 -6 0 -57 77 -57 87 0 7 11 -7 45 -59z m265 -26 c0 -7 -4
-10 -10 -7 -5 3 -10 16 -10 28 0 18 2 19 10 7 5 -8 10 -21 10 -28z m-201 -78
c12 -19 17 -33 12 -30 -5 3 -18 22 -30 42 -12 19 -17 33 -12 30 5 -3 18 -22
30 -42z m-2622 -26 c-3 -8 -6 -5 -6 6 -1 11 2 17 5 13 3 -3 4 -12 1 -19z
m3388 -135 c-4 -20 -10 -31 -17 -27 -12 7 -5 105 9 126 11 17 17 -55 8 -99z
m-1418 23 c1 -1 -14 -6 -33 -13 -32 -9 -38 -8 -62 14 -15 14 -21 22 -14 18 6
-3 12 -1 12 5 0 7 -7 9 -16 6 -16 -6 -54 18 -54 35 0 5 152 -54 167 -65z
m1343 58 c0 -8 -5 -12 -10 -9 -6 4 -8 11 -5 16 9 14 15 11 15 -7z m-1487 -47
c26 -21 47 -43 47 -48 0 -21 -33 -59 -44 -51 -6 5 -32 17 -58 27 -27 10 -48
21 -48 26 0 4 -2 13 -5 21 -8 20 33 80 48 72 6 -4 33 -25 60 -47z m-599 -68
c94 -23 162 -58 160 -81 -1 -9 -60 -92 -132 -185 l-131 -170 -138 -6 c-76 -4
-259 -14 -406 -22 -148 -9 -281 -15 -297 -13 -27 3 -20 11 136 178 219 232
276 270 464 303 125 22 245 21 344 -4z m1630 -2 c-2 -7 2 -30 11 -50 37 -89
79 -417 56 -440 -8 -8 -11 11 -11 75 0 142 -38 355 -71 394 -13 16 -4 48 10
39 6 -3 8 -11 5 -18z m-1120 -14 c4 -5 11 -8 14 -8 4 -1 24 -7 45 -15 30 -11
37 -19 37 -41 0 -29 -2 -30 -95 -45 -22 -3 -47 -8 -55 -10 -34 -8 -42 10 -24
57 22 58 55 84 78 62z m1177 -37 c12 -13 12 -46 0 -46 -13 0 -21 27 -20 63 1
21 3 25 6 12 3 -11 9 -24 14 -29z m-568 -37 c54 -22 74 -35 65 -40 -20 -13
-92 -11 -109 4 -20 16 -52 67 -42 67 5 0 43 -14 86 -31z m1040 17 c6 -15 -1
-26 -15 -26 -4 0 -8 9 -8 20 0 23 15 27 23 6z m-3143 -36 c12 -8 12 -10 -5 -9
-11 0 -29 4 -40 9 -18 8 -18 9 5 9 14 0 32 -4 40 -9z m-95 -30 c0 -22 -29 -18
-33 3 -3 14 1 18 15 15 10 -2 18 -10 18 -18z m1715 -42 c0 -6 -84 -58 -95 -58
-3 0 -4 4 -1 8 2 4 0 14 -5 22 -7 11 -8 7 -5 -12 4 -25 -2 -32 -79 -77 -96
-57 -125 -68 -125 -50 0 23 52 144 69 162 12 12 52 24 117 36 98 17 99 17 111
-4 7 -11 12 -23 13 -27z m565 22 c37 -1 45 -13 35 -52 -15 -52 -50 -62 -116
-33 -49 22 -50 23 -46 60 l4 37 52 -6 c28 -3 60 -6 71 -6z m-2384 -40 c12 -7
19 -21 19 -38 0 -34 16 -52 46 -52 26 0 48 -24 40 -45 -3 -8 -17 -15 -31 -15
-29 0 -65 -50 -65 -90 1 -21 3 -19 14 13 18 51 35 69 61 65 13 -2 36 10 59 30
26 22 44 31 57 27 10 -3 35 1 54 11 20 9 38 14 42 10 3 -3 -11 -13 -33 -22
-21 -9 -57 -29 -81 -45 -23 -16 -44 -29 -47 -29 -3 0 -14 -8 -24 -17 -10 -10
-33 -30 -50 -46 -30 -25 -42 -49 -24 -46 19 3 23 -2 12 -16 -7 -8 -10 -21 -7
-29 9 -22 -19 -53 -73 -82 -33 -18 -52 -36 -59 -55 -12 -36 -53 -55 -62 -30
-4 9 -1 26 7 39 8 12 12 22 10 22 -2 0 -11 3 -20 6 -10 4 -26 -6 -45 -27 -30
-32 -31 -32 -50 -15 -11 10 -30 38 -42 63 -18 37 -19 48 -9 73 26 63 73 77 86
25 8 -34 -9 -53 -31 -35 -8 7 -15 8 -15 2 0 -19 25 -30 47 -21 21 8 22 13 17
66 -9 82 8 133 56 177 22 20 47 36 55 36 19 0 19 16 0 24 -22 8 -18 41 8 59
26 19 51 21 78 7z m182 -31 c-13 -13 -26 -18 -34 -14 -9 6 -7 11 6 22 11 7 26
13 34 13 12 0 11 -5 -6 -21z m1686 0 l24 -20 -24 -26 c-13 -15 -45 -50 -70
-78 -25 -27 -92 -103 -149 -168 -88 -101 -105 -116 -119 -105 -13 10 -14 10
-4 -2 10 -10 8 -18 -8 -39 -39 -50 -104 -114 -134 -133 -35 -21 -80 -24 -72
-5 61 155 144 346 156 361 13 15 102 77 159 110 18 10 38 -4 21 -15 -12 -8
-11 -11 1 -19 8 -5 20 -10 25 -10 6 0 3 4 -5 10 -8 5 -12 12 -8 15 3 4 19 -1
35 -11 15 -10 25 -14 21 -9 -5 4 3 23 17 41 19 25 22 32 9 27 -13 -5 -15 -3
-9 8 7 11 5 11 -9 -1 -10 -8 -26 -15 -35 -15 -9 0 -15 -6 -13 -13 3 -14 -18
-13 -21 1 -2 7 171 117 183 116 3 0 16 -9 29 -20z m1461 -29 c0 -27 -4 -50
-10 -50 -5 0 -10 23 -10 50 0 28 5 50 10 50 6 0 10 -22 10 -50z m-2938 24
c-24 -17 -39 -14 -27 5 3 6 16 11 28 11 l21 0 -22 -16z m1980 -62 c17 -16 16
-20 0 -76 -10 -33 -23 -61 -29 -63 -11 -4 -123 133 -123 150 0 6 7 18 16 28
15 17 18 17 68 -2 28 -11 59 -28 68 -37z m-2567 11 c-30 -16 -44 -11 -26 11 7
8 21 12 33 8 20 -5 19 -6 -7 -19z m2155 -14 c0 -5 -11 -37 -24 -71 -14 -35
-55 -144 -91 -242 -70 -189 -86 -220 -117 -237 -21 -11 -286 7 -301 21 -4 4
16 34 45 66 29 33 140 160 246 282 193 221 193 222 218 206 13 -9 24 -20 24
-25z m294 -63 c75 -101 82 -130 53 -228 -23 -81 -24 -83 -44 -70 -10 7 -127
343 -120 347 4 2 52 24 54 24 1 1 27 -32 57 -73z m-232 52 c14 -11 17 -64 22
-387 l7 -373 -63 49 c-35 28 -82 62 -106 77 -65 40 -82 62 -82 101 0 26 99
328 175 533 2 6 10 12 18 12 7 0 20 -6 29 -12z m-302 -27 c-12 -23 -25 -27
-36 -9 -5 8 -1 9 12 5 18 -7 18 -6 -1 9 -16 13 -16 15 -3 11 10 -3 20 -2 24 4
11 19 16 1 4 -20z m461 -160 c82 -250 82 -248 17 -464 -29 -98 -58 -179 -63
-179 -5 0 -21 22 -34 48 -27 53 -25 27 -45 626 l-4 147 31 3 c18 2 34 2 36 1
2 -1 30 -83 62 -182z m-721 149 c0 -5 -2 -10 -4 -10 -2 0 -12 -3 -22 -7 -16
-6 -17 -5 -4 10 17 19 30 22 30 7z m-50 -21 c0 -6 -4 -7 -10 -4 -5 3 -10 11
-10 16 0 6 5 7 10 4 6 -3 10 -11 10 -16z m-154 -17 c13 -9 34 -102 34 -149 0
-54 -12 -32 -14 26 -1 40 -7 56 -30 80 -32 34 -25 68 10 43z m1681 -24 c-3 -8
-6 -5 -6 6 -1 11 2 17 5 13 3 -3 4 -12 1 -19z m-1750 6 c-3 -3 -12 -4 -19 -1
-8 3 -5 6 6 6 11 1 17 -2 13 -5z m-1 -16 c4 4 4 2 1 -5 -4 -6 -1 -13 5 -16 7
-2 0 -4 -16 -4 -16 0 -23 3 -16 7 8 5 5 9 -8 12 -15 4 -19 0 -19 -18 0 -22 8
-29 30 -25 5 1 5 -4 1 -10 -5 -8 -2 -10 9 -6 9 3 18 0 21 -9 3 -9 10 -13 14
-10 5 3 9 -1 9 -9 0 -8 -4 -15 -9 -15 -4 0 -8 4 -8 9 0 5 -14 14 -31 21 -41
17 -66 55 -49 75 8 10 18 11 35 5 13 -5 26 -6 31 -2z m69 -55 c8 -20 14 -38
11 -40 -2 -2 -9 10 -16 27 -7 16 -16 27 -20 25 -5 -3 -12 0 -16 6 -4 8 -3 9 4
5 19 -11 14 5 -5 21 -16 13 -16 13 5 3 12 -6 29 -27 37 -47z m1505 -7 c0 -17
7 -40 15 -50 19 -25 19 -50 0 -66 -8 -7 -15 -17 -15 -22 0 -6 18 8 40 31 44
45 66 50 108 24 15 -9 28 -18 30 -19 9 -5 -22 -60 -44 -76 -20 -16 -24 -26
-19 -48 4 -20 -2 -44 -20 -79 -27 -55 -30 -57 -41 -39 -5 7 -3 8 6 3 10 -6 12
-4 7 9 -4 9 -3 15 2 12 5 -3 12 1 15 10 6 15 4 15 -16 2 -12 -8 -25 -25 -28
-37 -3 -12 -9 -21 -13 -19 -12 4 -29 -30 -22 -42 3 -6 1 -10 -4 -10 -18 0 -13
30 10 62 12 16 19 31 16 34 -7 7 -54 -56 -60 -81 -5 -20 -5 -20 -6 0 0 11 15
43 35 70 27 39 34 56 30 79 -5 25 -4 27 10 15 15 -12 15 -23 -2 -64 -7 -18 -6
-18 9 -6 20 16 22 64 4 80 -22 18 -127 -24 -127 -51 0 -5 17 2 37 16 50 34 74
15 37 -30 -8 -10 -13 -13 -9 -6 10 20 0 14 -26 -15 -22 -25 -22 -26 -1 -9 28
24 28 13 1 -31 -15 -24 -20 -44 -16 -68 6 -35 4 -36 -66 -59 -10 -3 -16 -10
-12 -15 6 -11 -81 -81 -99 -81 -6 1 0 7 14 15 30 17 21 20 -14 4 -14 -7 -23
-16 -20 -20 3 -5 -4 -9 -15 -9 -12 0 -25 12 -35 31 -15 29 -14 31 18 66 27 30
41 36 84 41 29 2 52 1 52 -4 0 -18 -52 -64 -72 -64 -20 0 -21 1 -3 20 10 11
24 20 32 20 7 0 13 5 13 10 0 13 -6 13 -33 -1 -61 -32 -69 -69 -15 -69 35 0
91 27 83 40 -4 6 1 20 9 32 18 25 21 42 6 33 -5 -3 -19 4 -31 16 -17 17 -20
29 -16 61 6 45 26 71 67 88 16 6 48 31 73 53 40 38 43 44 33 70 -14 37 -23 34
-18 -8 4 -31 1 -36 -32 -51 -35 -17 -36 -17 -60 5 -38 36 -58 85 -47 115 11
28 46 50 67 42 10 -4 14 2 14 20 0 14 11 36 25 50 21 21 29 23 40 14 8 -7 15
-27 15 -44z m590 25 c0 -37 -32 -113 -37 -89 -3 9 0 26 6 36 8 15 7 23 -4 32
-14 11 -14 15 1 31 24 27 34 24 34 -10z m-3264 -27 c-5 -12 -8 -13 -20 -2 -10
9 -11 17 -2 30 9 15 12 16 19 2 5 -8 6 -22 3 -30z m1240 0 c22 -52 18 -97 -11
-124 -14 -14 -25 -18 -25 -11 0 7 10 21 23 31 18 15 20 21 10 31 -7 7 -13 31
-13 54 0 23 -6 47 -12 54 -11 11 -10 12 1 6 7 -4 19 -22 27 -41z m1671 4 c-3
-7 -5 -2 -5 12 0 14 2 19 5 13 2 -7 2 -19 0 -25z m-1901 13 c-3 -4 3 -16 14
-26 21 -19 27 -45 9 -45 -5 0 -8 4 -5 9 3 4 -3 16 -14 26 -19 17 -28 9 -12
-10 4 -6 3 -7 -2 -3 -5 4 -18 2 -29 -4 -16 -8 -14 -3 8 26 24 32 45 50 31 27z
m147 -41 c3 -11 1 -18 -4 -14 -5 3 -9 10 -9 16 0 6 -8 17 -17 25 -16 13 -16
13 3 4 12 -6 24 -20 27 -31z m-65 -12 c14 -14 15 -57 2 -78 -7 -11 -10 -4 -10
26 0 22 -5 45 -12 52 -7 7 -8 12 -2 12 6 0 15 -5 22 -12z m-361 -34 c-3 -3
-12 -4 -19 -1 -8 3 -5 6 6 6 11 1 17 -2 13 -5z m40 0 c-3 -3 -12 -4 -19 -1 -8
3 -5 6 6 6 11 1 17 -2 13 -5z m2127 -3 c3 -5 -2 -15 -12 -22 -15 -12 -16 -12
-5 2 7 9 10 19 6 22 -3 4 -4 7 0 7 3 0 8 -4 11 -9z m226 0 c0 -5 -7 -14 -15
-21 -16 -14 -18 -10 -9 14 6 17 24 22 24 7z m-1898 -23 c-7 -7 -12 -8 -12 -2
0 6 3 14 7 17 3 4 9 5 12 2 2 -3 -1 -11 -7 -17z m-702 -13 c-41 -22 -43 -25
-22 -31 25 -7 28 -17 8 -33 -11 -9 -17 -6 -31 15 -15 24 -18 24 -34 10 -20
-18 -36 -21 -26 -6 7 11 123 68 140 69 6 0 -10 -11 -35 -24z m670 6 c0 -5 -18
-31 -39 -58 -35 -45 -43 -50 -83 -51 -26 -1 -52 4 -64 13 -14 11 -15 14 -4 15
13 0 13 1 0 11 -13 9 -13 10 0 6 8 -2 15 -10 15 -18 0 -23 86 -19 108 5 21 24
14 35 -10 14 -22 -19 -56 -32 -48 -18 3 6 13 10 20 10 8 0 24 17 35 38 15 26
19 30 15 12 l-6 -25 19 22 c11 12 22 19 26 16 3 -4 6 -1 6 5 0 7 2 12 5 12 3
0 5 -4 5 -9z m1735 -11 c6 -10 -29 -50 -44 -50 -18 0 -20 17 -5 38 16 23 39
29 49 12z m-2057 -14 c15 -9 16 -26 1 -26 -5 0 -7 5 -3 12 5 8 2 9 -10 5 -11
-5 -15 -3 -10 5 5 8 2 9 -9 5 -9 -3 -19 -2 -22 3 -6 10 36 7 53 -4z m-819 -23
c-14 -40 -36 -66 -51 -61 -23 8 -115 -90 -134 -142 -13 -36 -24 -50 -42 -55
-13 -3 -27 -4 -30 0 -3 3 0 5 6 5 7 0 11 3 10 8 -1 4 5 27 12 51 13 39 12 45
-4 56 -22 17 -13 54 20 78 27 21 59 15 50 -8 -3 -8 -1 -17 5 -21 6 -3 8 -13 4
-23 -5 -13 -4 -14 7 -3 7 7 13 22 13 35 0 14 6 22 17 22 9 0 33 19 53 43 43
50 80 59 64 15z m131 23 c0 -2 -8 -10 -17 -17 -16 -13 -17 -12 -4 4 13 16 21
21 21 13z m930 0 c0 -2 -8 -10 -17 -17 -16 -13 -17 -12 -4 4 13 16 21 21 21
13z m2010 -41 c-7 -8 -16 -15 -21 -15 -15 0 -10 22 9 43 15 17 17 17 20 3 2
-9 -2 -23 -8 -31z m-56 -60 c-12 -52 -27 -102 -33 -112 -13 -22 -14 -12 -2 19
5 13 17 57 26 98 16 71 22 90 29 90 2 0 -7 -43 -20 -95z m-165 -1 c-12 -33
-31 -75 -42 -94 -11 -19 -25 -44 -31 -55 -6 -11 -26 -40 -44 -65 -18 -25 -59
-81 -91 -125 -74 -100 -193 -216 -291 -281 -98 -66 -100 -67 -100 -55 0 6 22
22 48 35 113 57 280 219 383 371 53 78 149 259 149 280 0 14 31 58 36 52 3 -2
-5 -31 -17 -63z m-66 34 c-13 -12 -25 -19 -28 -16 -8 7 23 38 38 38 6 0 2 -10
-10 -22z m448 -62 c-11 -36 -27 -78 -34 -93 -8 -15 -18 -48 -22 -71 -6 -35
-20 -58 -69 -110 -34 -37 -74 -83 -88 -103 -49 -67 -85 -96 -117 -97 -37 -1
-37 1 -10 40 27 38 18 47 -14 14 -30 -30 -44 -32 -76 -10 -15 11 -21 23 -18
35 8 31 -9 22 -32 -17 -12 -19 -21 -36 -21 -37 0 -1 19 -3 43 -4 53 -3 97 -21
97 -39 0 -8 5 -14 10 -14 6 0 10 5 10 10 0 14 33 13 48 -2 7 -7 12 -20 12 -30
0 -28 26 -21 54 15 25 31 25 32 6 47 -18 15 -18 16 9 55 29 44 73 56 79 22 5
-25 -66 -147 -91 -156 l-21 -8 21 -12 22 -11 -26 -26 c-14 -14 -22 -28 -18
-32 3 -4 15 4 25 18 16 21 21 23 43 13 20 -9 28 -8 42 5 16 16 16 15 0 -18
-36 -76 -44 -96 -49 -120 -3 -14 -33 -55 -68 -90 -35 -37 -63 -75 -63 -87 -2
-27 -32 -63 -53 -63 -9 0 -41 -26 -71 -58 -67 -70 -108 -99 -122 -85 -6 6 9
21 42 42 49 32 68 55 55 68 -3 3 -12 0 -21 -7 -8 -7 -15 -9 -15 -4 0 15 -63
12 -78 -2 -10 -10 -18 -11 -33 -4 -40 22 -13 55 102 128 36 23 75 53 87 67 21
24 42 33 42 18 0 -4 -12 -19 -27 -35 -24 -25 -25 -31 -16 -63 7 -20 7 -37 2
-41 -5 -3 -9 -10 -9 -17 0 -6 7 -2 15 9 9 12 12 31 9 51 -5 28 -1 38 36 73 23
22 46 40 52 40 6 0 7 7 4 16 -11 27 3 51 41 74 l35 21 -4 -31 c-5 -37 5 -39
20 -5 9 19 9 30 0 45 -12 18 -12 18 -39 -1 -32 -23 -40 -24 -33 -5 3 8 -5 23
-17 35 -25 23 -35 26 -44 11 -3 -5 2 -10 13 -10 25 0 28 -55 4 -70 -9 -5 -14
-10 -9 -10 22 -1 -59 -69 -96 -80 -62 -20 -64 -20 -83 1 -15 17 -15 20 0 44
22 33 62 59 81 51 8 -3 15 -1 15 5 0 6 5 7 10 4 6 -3 10 -1 10 5 0 23 -66 -2
-105 -41 l-40 -39 17 -30 c15 -27 15 -30 1 -30 -10 0 -13 -6 -9 -16 3 -8 2
-12 -4 -9 -6 3 -10 -4 -10 -16 0 -19 2 -20 18 -9 9 7 -3 -5 -28 -28 -43 -39
-86 -60 -98 -47 -10 10 55 68 69 62 9 -3 4 -9 -13 -16 -16 -6 -28 -16 -28 -22
0 -14 62 21 68 39 2 7 -5 16 -17 19 -12 3 -21 7 -21 8 0 2 13 34 30 73 16 38
31 89 32 113 3 38 0 44 -17 44 -15 0 -23 -14 -39 -67 -20 -73 -38 -85 -70 -49
-16 18 -16 21 -1 51 9 18 25 35 36 37 10 3 19 11 19 18 0 7 9 34 20 59 10 25
18 46 16 46 -2 0 -16 -21 -31 -46 -28 -47 -49 -54 -69 -22 -8 13 -8 23 2 39 7
11 10 29 7 39 -8 25 41 63 74 57 14 -3 31 1 38 9 8 8 24 15 36 15 13 1 7 4
-13 8 -33 6 -35 8 -33 41 2 31 1 32 -6 10 -8 -22 -9 -22 -10 -4 -1 11 13 40
31 64 l32 43 13 -31 c8 -19 20 -32 31 -32 11 0 13 3 5 8 -6 4 -19 26 -28 50
-17 42 -17 42 9 77 15 19 33 35 41 35 8 0 26 15 40 34 32 42 62 50 132 36 49
-11 56 -15 70 -48 10 -24 13 -53 9 -87 -5 -51 1 -46 24 18 5 15 16 27 25 27 8
0 15 7 15 15 0 9 20 36 44 60 54 55 79 105 70 140 -5 20 0 32 17 51 32 34 34
18 10 -60z m-3171 44 c-11 -16 -26 -33 -33 -37 -12 -7 0 11 32 50 23 28 24 20
1 -13z m3070 20 c0 -5 -2 -10 -4 -10 -3 0 -8 5 -11 10 -3 6 -1 10 4 10 6 0 11
-4 11 -10z m-3460 -43 c0 -8 -8 -21 -18 -30 -21 -19 -42 -6 -42 25 0 13 8 18
30 18 18 0 30 -5 30 -13z m-120 -19 c-1 -29 -34 -73 -48 -64 -8 5 -8 15 -1 34
20 52 49 70 49 30z m149 -20 c-5 -18 -11 -87 -14 -153 l-4 -120 10 95 c12 108
29 204 35 197 3 -2 -1 -38 -7 -78 -16 -102 -5 -334 20 -420 31 -108 118 -320
158 -385 100 -161 205 -271 321 -337 61 -34 54 -59 -7 -27 -58 30 -162 110
-156 120 3 5 0 12 -6 16 -8 5 -9 3 -4 -7 4 -8 -6 -1 -22 14 -22 21 -32 25 -36
15 -4 -10 -10 -8 -22 7 -9 11 -21 19 -27 17 -6 -2 -21 7 -33 18 -13 12 -38 29
-56 38 -18 9 -35 23 -37 29 -2 7 20 -3 49 -22 29 -19 55 -33 57 -30 3 2 -8 18
-22 36 -33 38 -128 199 -150 253 -9 22 -19 37 -22 33 -3 -3 0 -15 6 -27 17
-31 2 -39 -21 -11 -24 29 -27 70 -4 51 21 -17 20 -13 -19 72 -57 121 -77 208
-83 349 -6 137 2 239 19 239 6 0 7 -8 3 -17 -4 -10 -9 -58 -12 -108 -7 -111
16 -270 57 -389 32 -97 163 -346 223 -424 22 -29 37 -55 34 -59 -9 -9 44 -35
60 -29 7 3 17 -3 22 -12 6 -9 11 -13 11 -9 0 5 -20 33 -45 63 -91 112 -189
314 -246 504 -16 54 -18 58 -13 21 13 -92 84 -263 168 -405 55 -92 55 -114 0
-29 -134 206 -201 420 -219 693 -6 84 6 217 21 242 13 21 22 5 13 -24z m1146
-8 c3 -6 -1 -7 -9 -4 -18 7 -21 14 -7 14 6 0 13 -4 16 -10z m1565 -18 c0 -5
-11 -14 -25 -20 -31 -14 -33 1 -2 16 28 14 27 13 27 4z m-2651 -9 c0 -5 -4
-17 -9 -28 -8 -18 -9 -17 -9 8 -1 15 4 27 9 27 6 0 10 -3 9 -7z m3201 -3 c0
-5 -4 -10 -9 -10 -5 0 -8 -7 -7 -16 0 -9 -5 -19 -11 -21 -17 -6 -17 29 -1 45
15 15 28 16 28 2z m-286 -64 c-3 -8 -13 -17 -22 -21 -13 -5 -13 -2 3 15 21 24
26 25 19 6z m-1119 -21 c79 -20 187 -75 257 -129 64 -51 158 -166 134 -166 -8
0 -22 -7 -31 -16 -21 -21 -3 -44 35 -44 27 0 28 -1 17 -31 -8 -22 -33 -45 -80
-75 l-68 -44 2 -94 c2 -61 6 -93 13 -90 6 2 16 0 23 -4 9 -6 8 -20 -4 -62 -20
-72 -26 -77 -67 -62 -21 8 -42 9 -57 4 -32 -12 -84 10 -84 34 0 16 -8 19 -50
20 -41 0 -104 23 -350 129 -165 70 -303 131 -307 134 -4 3 12 51 36 106 23 55
55 131 71 169 23 56 34 71 61 82 18 8 39 24 45 36 7 13 28 42 47 66 19 23 30
42 26 43 -5 1 2 5 16 10 37 12 245 2 315 -16z m-1553 -22 l-6 -28 -8 25 c-4
14 -6 -25 -4 -90 3 -88 9 -128 25 -168 12 -29 17 -51 12 -48 -14 9 -59 145
-66 199 -3 26 -3 67 1 92 5 38 10 45 29 45 19 0 21 -4 17 -27z m121 -25 c-21
-82 -27 -186 -13 -253 7 -33 13 -67 14 -75 1 -9 4 -20 8 -25 3 -6 8 -23 11
-40 13 -64 -41 72 -62 157 -23 96 -26 162 -10 238 10 45 13 50 38 50 l28 0
-14 -52z m47 43 c0 -5 -7 -28 -15 -51 -38 -109 -3 -343 70 -465 33 -53 42 -83
17 -53 -51 63 -122 293 -122 399 0 44 17 157 27 172 6 10 23 9 23 -2z m2180 0
c0 -5 -7 -11 -15 -15 -15 -5 -20 5 -8 17 9 10 23 9 23 -2z m-2092 -42 c-2 -6
-8 -10 -13 -10 -5 0 -11 4 -13 10 -2 6 4 11 13 11 9 0 15 -5 13 -11z m-418 -7
c0 -13 -12 -22 -22 -16 -10 6 -1 24 13 24 5 0 9 -4 9 -8z m2823 -17 c-3 -9 -8
-13 -11 -10 -3 3 -18 -7 -34 -22 -15 -15 -28 -24 -28 -20 0 9 62 66 72 67 4 0
5 -7 1 -15z m-2483 -46 c0 -20 -15 -26 -24 -10 -8 13 4 42 15 35 5 -3 9 -14 9
-25z m-410 -72 c0 -5 -4 -5 -10 -2 -16 10 -12 -6 7 -29 16 -19 15 -19 -6 1
-16 14 -25 35 -27 65 l-4 43 20 -35 c10 -19 19 -39 20 -43z m2390 52 c0 -16
-31 -38 -54 -39 -18 0 -18 2 4 25 25 26 50 33 50 14z m395 -9 c-3 -5 -12 -10
-18 -10 -7 0 -6 4 3 10 19 12 23 12 15 0z m-1517 -18 c2 -7 -6 -12 -18 -12
-12 0 -18 5 -15 10 8 13 -5 13 -25 0 -13 -9 -13 -10 0 -11 10 0 8 -3 -5 -8
-11 -4 -28 -6 -38 -3 -15 4 -11 9 19 23 42 19 76 19 82 1z m-193 -13 c47 0 48
-1 16 -9 -18 -4 -46 -17 -62 -29 -15 -12 -32 -21 -36 -21 -4 0 3 7 16 16 27
19 15 39 -24 39 -18 1 -29 -8 -40 -30 -8 -16 -15 -23 -15 -15 0 9 7 26 16 39
14 19 22 22 48 16 17 -3 54 -6 81 -6z m1468 -16 c-7 -2 -21 -2 -30 0 -10 3 -4
5 12 5 17 0 24 -2 18 -5z m-1533 -7 c0 -3 -4 -8 -10 -11 -5 -3 -10 -1 -10 4 0
6 5 11 10 11 6 0 10 -2 10 -4z m-49 -48 c-12 -12 -21 -25 -21 -30 0 -4 -5 -8
-10 -8 -6 0 2 19 17 41 15 23 29 36 31 31 2 -6 -6 -21 -17 -34z m154 -18 c-3
-5 -14 -10 -23 -10 -15 0 -15 2 -2 10 20 13 33 13 25 0z m1186 -15 c-1 -15
-24 -12 -29 3 -3 9 2 13 12 10 10 -1 17 -7 17 -13z m-1251 -5 c8 -5 13 -10 10
-11 -9 -1 -55 -9 -72 -12 -16 -2 -47 -34 -48 -49 0 -4 8 -4 17 -1 13 5 13 3
-3 -13 -16 -16 -20 -17 -23 -4 -2 8 -8 18 -15 22 -8 6 -7 8 2 8 7 0 28 16 46
35 34 35 59 43 86 25z m-186 -15 c-4 -8 -11 -12 -17 -8 -6 4 -8 0 -4 -11 4
-10 3 -15 -3 -11 -6 4 -10 -6 -10 -22 0 -15 -5 -35 -10 -43 -6 -10 -8 -2 -4
25 7 43 28 85 44 85 5 0 7 -7 4 -15z m40 9 c18 -7 22 -44 5 -44 -6 0 -9 7 -5
15 3 8 -2 19 -12 24 -19 12 -12 14 12 5z m-844 -46 c19 -24 26 -37 17 -29 -19
15 -61 71 -54 71 2 0 19 -19 37 -42z m2188 17 c-6 -7 -45 -16 -72 -18 -10 -1
-21 3 -23 10 -3 8 9 12 37 11 22 0 44 2 47 6 4 3 9 4 11 1 3 -3 3 -7 0 -10z
m-1234 -20 c-9 -14 -19 -23 -22 -20 -5 4 26 45 35 45 2 0 -4 -11 -13 -25z
m-124 5 c0 -5 -5 -10 -11 -10 -5 0 -7 5 -4 10 3 6 8 10 11 10 2 0 4 -4 4 -10z
m100 6 c0 -3 -4 -8 -10 -11 -5 -3 -10 -1 -10 4 0 6 5 11 10 11 6 0 10 -2 10
-4z m-105 -36 c-3 -5 -14 -10 -23 -9 -14 0 -13 2 3 9 27 11 27 11 20 0z m16
-23 c-10 -9 -11 -8 -5 6 3 10 9 15 12 12 3 -3 0 -11 -7 -18z m2479 15 c0 -5
-7 -17 -16 -28 -8 -10 -14 -14 -11 -9 2 6 7 18 10 28 7 17 17 23 17 9z m-2370
-42 c0 7 3 10 7 7 10 -10 -27 -46 -42 -41 -6 3 -11 16 -9 30 1 13 -2 24 -7 24
-6 0 -7 4 -4 10 3 5 17 -2 31 -17 13 -14 24 -20 24 -13z m-764 -78 c21 -11 50
-23 64 -27 14 -4 61 -25 104 -47 154 -75 360 -132 525 -144 30 -2 57 -6 59 -9
9 -9 -6 -17 -31 -19 -14 0 -23 -4 -20 -8 8 -14 -77 -12 -124 2 -19 5 -6 7 42
4 66 -3 64 -3 -29 12 -103 15 -118 20 -326 99 -144 54 -173 63 -150 45 13 -10
13 -11 0 -7 -8 2 -15 9 -15 15 0 6 -23 23 -51 39 -150 83 -157 89 -183 148 -2
6 19 -11 46 -37 28 -25 68 -55 89 -66z m531 76 c-3 -8 -6 -5 -6 6 -1 11 2 17
5 13 3 -3 4 -12 1 -19z m1967 -45 c-19 -32 -22 -43 -11 -34 15 12 39 9 26 -3
-14 -13 -209 -106 -234 -111 -16 -4 17 16 74 44 57 28 108 51 113 51 5 0 6 4
3 10 -10 16 14 89 33 99 27 15 26 -4 -4 -56z m-3096 28 c5 -32 -7 -73 -18 -66
-15 9 -13 98 3 93 6 -3 13 -15 15 -27z m1247 19 c-3 -5 -12 -10 -18 -10 -7 0
-6 4 3 10 19 12 23 12 15 0z m26 -18 c-16 -31 -14 -52 5 -45 10 3 14 13 11 25
-4 14 -2 17 7 9 7 -6 12 -32 11 -61 -2 -65 -28 -96 -68 -81 -17 7 -27 18 -27
31 0 11 0 22 0 25 0 2 -12 16 -25 29 -14 14 -25 31 -24 38 0 10 2 10 6 0 2 -6
9 -10 14 -7 5 4 6 0 3 -8 -3 -8 -1 -18 5 -22 6 -3 11 2 12 12 0 16 1 15 9 -2
19 -47 81 -61 88 -20 3 16 1 18 -9 8 -22 -22 -39 -15 -39 17 0 29 20 84 27 76
3 -2 0 -13 -6 -24z m-458 -25 c14 -24 46 -66 71 -94 47 -52 62 -81 25 -47 -12
10 -24 19 -28 19 -3 0 -5 4 -3 9 2 5 -10 23 -26 40 -28 30 -72 97 -72 110 0
14 9 4 33 -37z m1820 9 c21 -8 47 -22 58 -32 13 -12 32 -17 53 -16 27 3 38 -3
60 -28 37 -45 42 -75 22 -149 -24 -93 -67 -181 -112 -231 -47 -52 -22 -41 40
18 27 26 47 55 51 75 11 55 29 97 40 97 6 0 41 30 78 66 62 59 71 65 105 62
36 -3 37 -4 35 -43 -3 -71 -103 -265 -136 -265 -7 0 -37 -25 -67 -56 -30 -30
-72 -63 -94 -73 -21 -10 -34 -21 -28 -25 6 -3 13 -2 17 4 3 5 16 10 27 10 13
0 42 21 69 49 34 35 49 45 53 35 3 -8 1 -14 -4 -14 -6 0 -10 -8 -10 -18 0 -19
-45 -64 -71 -71 -43 -12 -69 -11 -91 3 -14 9 -28 13 -33 9 -4 -5 -5 -2 -1 5 9
15 -30 17 -39 2 -3 -5 -14 -10 -23 -10 -9 0 6 14 34 31 27 17 68 46 90 65 23
18 45 30 49 26 3 -4 5 -1 3 7 -4 19 21 26 28 7 8 -22 -13 -46 -33 -39 -12 5
-14 3 -8 -8 6 -11 5 -12 -6 -1 -10 10 -19 6 -46 -20 -18 -18 -33 -38 -33 -45
0 -20 10 -16 32 12 11 14 29 25 41 25 23 0 77 46 77 67 0 8 16 27 34 44 47 41
112 157 97 172 -8 8 -18 4 -39 -18 -15 -16 -18 -22 -7 -14 11 8 23 18 27 24 4
5 10 6 14 2 4 -4 -9 -31 -29 -62 -21 -30 -37 -58 -37 -63 0 -17 -49 -54 -65
-49 -8 4 -15 10 -14 14 4 25 -8 18 -72 -41 -77 -71 -217 -150 -246 -139 -14 5
-14 8 -2 11 30 10 140 95 167 130 33 42 92 155 92 174 -1 7 -14 -14 -29 -47
-36 -75 -86 -144 -112 -154 -16 -5 -29 1 -54 26 -26 26 -41 33 -73 33 -23 0
-44 -5 -48 -12 -5 -8 3 -9 31 -5 42 7 95 -14 95 -38 0 -30 -24 -64 -58 -82
-20 -10 -44 -26 -54 -35 -9 -10 -29 -20 -43 -23 -14 -3 -36 -7 -50 -10 -14 -3
-33 -15 -43 -26 -39 -47 -108 -63 -150 -33 -15 10 -34 14 -55 10 -52 -9 36 19
108 35 33 7 78 20 100 30 l40 17 -28 12 c-24 12 -45 9 -165 -19 -313 -73 -340
-77 -407 -57 -11 4 -4 -1 15 -10 27 -13 66 -17 166 -18 129 -1 131 -1 105 -18
-35 -24 -124 -23 -230 2 -67 16 -93 28 -133 61 -58 49 -74 75 -59 93 11 13 5
26 -11 26 -17 0 -7 -48 17 -84 23 -34 23 -36 4 -36 -10 0 -37 12 -59 26 -38
25 -40 30 -40 76 0 75 28 118 78 118 9 0 61 21 116 47 101 47 152 57 217 40
22 -6 49 -42 49 -67 0 -10 -90 -31 -102 -24 -15 10 -8 23 15 26 35 5 30 42 -7
46 -39 5 -98 -7 -91 -17 6 -11 -43 -43 -58 -38 -7 2 2 11 18 20 17 9 26 16 20
17 -5 0 -28 -11 -50 -25 l-40 -24 45 -2 c63 -2 61 -1 103 -27 20 -13 37 -30
37 -38 0 -21 -46 -47 -70 -39 -20 6 -20 8 -5 25 16 17 15 19 -4 29 -31 17 -79
13 -101 -9 -26 -26 -25 -46 4 -75 20 -20 30 -23 48 -16 27 10 66 -2 74 -24 15
-38 306 4 413 59 29 15 33 22 45 77 4 18 15 29 33 34 17 4 22 10 15 12 -8 3
-27 -4 -43 -16 -28 -21 -28 -21 -39 -1 -8 16 -6 24 11 41 18 18 28 20 70 14
44 -6 55 -3 111 29 103 58 141 145 70 161 -36 7 -58 57 -35 77 9 7 30 12 47
11 29 -2 30 -2 6 6 -14 5 -19 9 -11 10 8 1 12 4 8 7 -11 11 -47 -7 -63 -31
-14 -22 -14 -27 0 -56 19 -38 9 -51 -39 -47 -30 3 -30 4 -33 66 -3 62 -2 65
35 99 64 61 108 73 176 49z m107 -6 c8 -5 11 -10 5 -10 -5 0 -17 5 -25 10 -8
5 -10 10 -5 10 6 0 17 -5 25 -10z m-2306 -21 c-6 -11 -24 -2 -24 11 0 5 7 7
15 4 8 -4 12 -10 9 -15z m187 6 c-1 -15 -24 -12 -29 3 -3 9 2 13 12 10 10 -1
17 -7 17 -13z m129 -30 c14 -19 14 -19 -2 -6 -10 7 -18 18 -18 24 0 6 1 8 3 6
1 -2 9 -13 17 -24z m-525 -6 c11 -17 -1 -21 -15 -4 -8 9 -8 15 -2 15 6 0 14
-5 17 -11z m306 -5 c11 -14 9 -15 -16 -12 -16 1 -30 9 -33 16 -6 18 33 15 49
-4z m2718 -55 c-9 -40 -59 -152 -65 -146 -7 6 59 196 66 192 4 -3 4 -24 -1
-46z m-2483 -45 c18 -14 18 -14 -6 -3 -31 14 -36 19 -24 19 6 0 19 -7 30 -16z
m84 -75 c80 -31 282 -87 378 -104 46 -8 93 -22 105 -30 21 -15 20 -16 -23 -9
-25 3 -57 6 -72 6 -15 -1 -30 3 -33 9 -4 5 -11 7 -16 3 -5 -3 -28 -3 -51 1
-30 5 -37 10 -27 17 9 6 3 7 -21 3 -27 -5 -32 -4 -20 5 12 9 9 10 -15 5 -16
-4 -27 -3 -22 1 4 4 -42 24 -101 44 -60 21 -134 53 -165 73 -66 43 -77 59 -14
23 23 -13 67 -34 97 -47z m2030 26 c-7 -8 -18 -15 -24 -15 -6 0 -2 7 8 15 25
19 32 19 16 0z m289 -33 c-6 -18 -15 -32 -19 -32 -5 0 -22 -22 -39 -49 -28
-47 -71 -84 -71 -62 0 5 4 13 10 16 5 3 7 19 4 34 -8 41 9 67 68 101 29 16 54
28 55 26 2 -1 -2 -17 -8 -34z m191 8 c0 -5 -5 -10 -11 -10 -5 0 -7 5 -4 10 3
6 8 10 11 10 2 0 4 -4 4 -10z m-1517 -19 c8 -8 -4 -11 -50 -11 -59 0 -81 8
-65 25 10 10 101 0 115 -14z m-1703 -16 c20 -24 5 -28 -21 -6 -19 16 -20 20
-8 21 9 0 22 -7 29 -15z m453 -39 c-3 -5 -1 -6 6 -2 13 8 41 -10 41 -26 0 -15
-43 2 -62 24 -24 27 -23 41 1 26 11 -7 17 -16 14 -22z m1127 18 c0 -2 -7 -4
-15 -4 -8 0 -15 4 -15 10 0 5 7 7 15 4 8 -4 15 -8 15 -10z m1444 -18 c-3 -9
-10 -16 -15 -16 -6 0 -5 9 1 21 13 24 24 20 14 -5z m-1799 -6 c-3 -5 -17 -10
-31 -10 -13 0 -24 5 -24 10 0 6 14 10 31 10 17 0 28 -4 24 -10z m839 -9 c6 -8
-25 -21 -51 -21 -19 0 -15 18 5 23 29 8 41 7 46 -2z m-624 -10 c0 -11 -25 -21
-51 -21 -12 0 -16 5 -13 15 7 16 64 21 64 6z m-1435 -21 c10 -11 14 -20 9 -20
-5 0 -15 9 -22 20 -7 11 -11 20 -9 20 2 0 12 -9 22 -20z m1320 10 c-3 -5 -10
-10 -16 -10 -5 0 -9 5 -9 10 0 6 7 10 16 10 8 0 12 -4 9 -10z m-350 -70 c20
-15 20 -14 1 8 -11 12 -15 22 -9 22 16 0 44 -36 36 -45 -5 -4 -3 -5 4 -1 6 3
49 -18 95 -48 46 -29 102 -63 124 -74 82 -42 272 -112 301 -112 17 0 36 -7 43
-15 7 -8 8 -15 3 -15 -31 0 -208 52 -266 78 -97 44 -83 29 18 -20 47 -22 83
-43 80 -46 -19 -19 -362 189 -446 269 -25 24 -36 37 -25 29 12 -9 30 -22 41
-30z m-551 -50 c-6 -6 -53 52 -53 65 0 6 13 -6 28 -25 16 -19 27 -37 25 -40z
m2472 55 c8 -7 -5 -19 -45 -42 -73 -42 -81 -41 -37 4 20 21 36 41 36 46 0 10
32 5 46 -8z m-2766 -24 c18 -15 29 -17 43 -9 15 7 23 6 35 -6 20 -20 7 -34
-18 -18 -12 7 -21 8 -25 2 -10 -17 -51 -11 -69 9 -10 11 -15 25 -11 30 9 15
16 14 45 -8z m2825 -47 c-88 -82 -280 -213 -357 -243 -13 -5 -49 -21 -80 -35
-32 -14 -58 -21 -58 -16 0 6 8 13 18 16 126 40 407 217 510 321 13 13 26 23
30 23 4 -1 -24 -30 -63 -66z m-70 6 c-16 -17 -32 -30 -36 -30 -4 0 7 15 24 33
18 18 34 31 36 30 3 -2 -8 -17 -24 -33z m-2355 -5 c7 -9 10 -18 7 -22 -8 -7
-37 15 -37 28 0 14 16 11 30 -6z m81 -46 c19 -13 29 -29 29 -45 0 -24 -1 -24
-28 -10 -15 8 -36 24 -47 36 -16 18 -17 23 -5 30 20 13 18 13 51 -11z m-140
-25 c23 -25 27 -33 13 -26 -18 9 -61 62 -51 62 2 0 19 -16 38 -36z m-51 -12
c-7 -3 -19 3 -28 13 -16 15 -15 16 12 4 15 -7 23 -15 16 -17z m2684 -1 c-84
-75 -200 -138 -220 -118 -8 8 91 67 113 67 11 0 40 15 64 34 24 19 46 32 48
30 3 -3 0 -8 -5 -13z m-2250 -12 c14 -7 32 -27 41 -46 19 -39 31 -39 16 0 -10
25 -8 27 23 33 44 8 76 -10 76 -41 0 -13 -5 -27 -10 -30 -6 -4 0 -19 16 -38
21 -25 25 -38 21 -67 l-5 -36 47 24 c95 48 197 5 146 -63 -15 -19 -15 -19 -31
3 -10 14 -25 22 -42 21 -21 -1 -23 -2 -7 -6 29 -7 45 -23 45 -43 0 -19 19 -30
53 -30 38 0 72 -24 72 -50 0 -28 30 -39 117 -43 62 -4 81 -13 58 -27 -18 -11
-104 -4 -131 10 -23 13 -89 15 -154 6 -33 -4 -74 -1 -120 9 -38 8 -90 19 -115
25 -63 12 -205 90 -257 139 -13 12 -23 19 -23 16 0 -3 -17 4 -37 15 -22 11
-57 20 -83 20 -36 0 -58 9 -109 43 -75 49 -72 47 -133 76 -43 21 -66 46 -53
59 6 7 81 -33 110 -58 53 -46 131 -63 176 -39 27 14 82 2 75 -17 -11 -28 35
-14 68 21 37 39 62 43 108 19 17 -9 27 -11 23 -4 -4 6 -17 16 -29 21 -17 8
-14 9 14 5 l35 -5 -30 14 c-16 7 -35 11 -42 8 -21 -8 -43 5 -37 22 7 16 50 44
71 45 7 0 23 -5 37 -11z m1897 -19 c-13 -11 -28 -20 -35 -20 -6 0 3 9 19 19
39 25 46 25 16 1z m419 5 c-7 -8 -17 -15 -22 -15 -6 0 -5 7 2 15 7 8 17 15 22
15 6 0 5 -7 -2 -15z m-655 -60 c-68 -33 -128 -44 -139 -26 -11 17 22 32 56 27
22 -4 46 0 73 13 22 11 49 19 60 20 11 0 -11 -15 -50 -34z m-239 -10 c-11 -8
-25 -15 -30 -15 -6 1 0 7 14 15 32 19 40 18 16 0z m49 -50 c-52 -25 -173 -60
-181 -52 -4 4 203 75 221 75 6 0 -13 -10 -40 -23z m-310 6 c3 -5 1 -12 -5 -16
-14 -9 -52 4 -45 16 8 12 42 12 50 0z m-370 -57 c56 -10 152 -17 257 -18 92 0
163 -4 159 -9 -4 -4 -75 -8 -157 -8 -137 0 -183 3 -253 17 -21 5 -23 3 -12
-10 12 -14 10 -16 -12 -16 -36 0 -79 18 -72 30 3 5 -7 16 -22 25 -27 16 -27
16 -3 10 14 -3 66 -12 115 -21z m799 8 c11 -18 -28 -53 -107 -96 -98 -53 -145
-72 -67 -26 62 37 100 68 100 84 0 11 47 45 62 46 4 0 9 -4 12 -8z m-934 -6
c0 -2 -9 -6 -20 -9 -11 -3 -20 -1 -20 4 0 5 9 9 20 9 11 0 20 -2 20 -4z m635
-26 c-3 -5 -17 -10 -31 -10 -13 0 -24 5 -24 10 0 6 14 10 31 10 17 0 28 -4 24
-10z m179 -31 c-49 -48 -379 -63 -525 -24 -83 23 -100 38 -22 20 92 -22 270
-37 343 -30 91 10 190 31 203 44 6 6 13 11 16 11 3 0 -4 -9 -15 -21z m-999
-39 c3 -5 2 -10 -4 -10 -5 0 -13 5 -16 10 -3 6 -2 10 4 10 5 0 13 -4 16 -10z
m787 -96 c-30 -13 -58 -21 -64 -18 -17 11 9 27 54 35 66 10 67 9 10 -17z"/>
<path d="M2789 4466 c13 -14 20 -29 16 -35 -9 -15 -42 -14 -48 2 -3 7 -6 6 -6
-5 -1 -11 8 -18 27 -20 l27 -4 -26 -11 c-14 -6 -41 -22 -61 -35 l-35 -24 23
-30 c13 -16 24 -24 24 -17 0 6 9 15 20 18 11 3 20 14 20 23 0 9 14 32 31 50
16 17 27 32 24 32 -3 0 -1 9 5 21 12 21 -4 54 -20 44 -5 -3 -11 -1 -15 5 -3 5
-11 10 -17 10 -6 0 -1 -11 11 -24z m39 -21 c-3 -3 -9 2 -12 12 -6 14 -5 15 5
6 7 -7 10 -15 7 -18z"/>
<path d="M2820 4354 c-10 -11 -10 -14 1 -14 8 0 20 4 27 9 11 7 11 9 -1 14 -9
3 -21 -1 -27 -9z"/>
<path d="M2813 4307 c3 -9 -6 -23 -24 -36 -16 -12 -29 -27 -29 -33 0 -7 12 0
28 14 15 14 35 29 44 34 16 9 16 11 -4 23 -18 11 -20 11 -15 -2z"/>
<path d="M2615 4261 c-14 -28 -5 -55 10 -31 4 6 19 16 33 21 21 8 29 7 40 -8
13 -17 14 -17 10 2 -4 23 -44 33 -61 16 -20 -20 -31 -11 -12 9 10 11 13 20 7
20 -6 0 -18 -13 -27 -29z"/>
<path d="M2690 4211 c0 -5 -20 -12 -45 -15 -24 -4 -48 -12 -51 -18 -5 -8 -1
-9 10 -5 10 4 35 10 57 13 23 4 39 12 39 20 0 8 -2 14 -5 14 -3 0 -5 -4 -5 -9z"/>
<path d="M2746 4147 c3 -10 9 -15 12 -12 3 3 0 11 -7 18 -10 9 -11 8 -5 -6z"/>
<path d="M2925 4069 c-16 -10 -25 -19 -19 -19 7 0 22 9 35 20 30 24 23 24 -16
-1z"/>
<path d="M2738 4013 c7 -3 16 -2 19 1 4 3 -2 6 -13 5 -11 0 -14 -3 -6 -6z"/>
<path d="M3463 4395 c-23 -16 -27 -55 -5 -55 7 0 31 -9 52 -19 22 -11 42 -16
44 -12 6 9 -40 36 -76 45 -33 7 -28 33 8 42 33 9 49 -5 27 -23 -17 -13 -17
-13 3 -4 15 7 24 7 32 -1 8 -8 12 -9 12 -1 0 13 -44 43 -62 43 -8 0 -23 -7
-35 -15z"/>
<path d="M3048 4298 c-13 -13 -17 -18 -8 -12 8 6 24 16 35 22 11 6 15 12 8 12
-7 0 -22 -10 -35 -22z"/>
<path d="M4870 3526 c0 -2 8 -10 18 -17 15 -13 16 -12 3 4 -13 16 -21 21 -21
13z"/>
<path d="M4870 3497 c0 -2 6 -10 14 -16 11 -9 16 -9 22 1 4 7 4 10 -1 6 -4 -4
-14 -3 -22 3 -7 6 -13 9 -13 6z"/>
<path d="M4910 3430 c6 -11 13 -20 16 -20 2 0 0 9 -6 20 -6 11 -13 20 -16 20
-2 0 0 -9 6 -20z"/>
<path d="M4935 3401 c-3 -5 0 -13 6 -17 8 -4 9 -3 5 4 -4 7 -3 12 3 12 5 0 13
-9 16 -21 4 -11 9 -18 12 -16 7 7 -16 47 -27 47 -5 0 -11 -4 -15 -9z"/>
<path d="M4986 3337 c3 -10 9 -15 12 -12 3 3 0 11 -7 18 -10 9 -11 8 -5 -6z"/>
<path d="M5006 3263 c-6 -14 -5 -15 5 -6 7 7 10 15 7 18 -3 3 -9 -2 -12 -12z"/>
<path d="M5020 3209 c0 -5 5 -7 10 -4 6 3 10 8 10 11 0 2 -4 4 -10 4 -5 0 -10
-5 -10 -11z"/>
<path d="M5051 3154 c0 -11 3 -14 6 -6 3 7 2 16 -1 19 -3 4 -6 -2 -5 -13z"/>
<path d="M5070 3057 c0 -20 4 -38 9 -42 6 -3 7 10 4 32 -8 50 -13 55 -13 10z"/>
<path d="M3896 3277 c3 -8 11 -14 19 -14 11 0 12 4 4 14 -6 7 -15 13 -20 13
-5 0 -6 -6 -3 -13z"/>
<path d="M3746 3291 c-3 -9 -9 -23 -12 -31 -4 -8 3 -4 14 10 25 30 29 20 6
-15 -9 -14 -15 -25 -13 -26 57 -13 74 -4 44 21 -11 9 -12 17 -4 31 5 10 8 19
7 20 -26 7 -37 4 -42 -10z m40 -58 c-7 -7 -26 7 -26 19 0 6 6 6 15 -2 9 -7 13
-15 11 -17z"/>
<path d="M3803 3273 c3 -23 16 -43 27 -43 13 0 6 26 -13 44 -16 17 -17 17 -14
-1z"/>
<path d="M3845 3220 c-3 -5 -1 -10 4 -10 6 0 11 5 11 10 0 6 -2 10 -4 10 -3 0
-8 -4 -11 -10z"/>
<path d="M3718 3172 c-4 -14 -1 -19 11 -17 9 1 22 -3 30 -9 11 -8 13 -8 8 1
-4 6 -1 14 5 16 7 3 4 6 -7 6 -12 1 -26 6 -32 12 -7 7 -12 5 -15 -9z"/>
<path d="M3810 3131 c0 -25 6 -27 13 -6 4 8 2 17 -3 20 -6 4 -10 -3 -10 -14z"/>
<path d="M3695 3130 c27 -12 43 -12 25 0 -8 5 -22 9 -30 9 -10 0 -8 -3 5 -9z"/>
<path d="M3757 3109 c7 -7 15 -10 18 -7 3 3 -2 9 -12 12 -14 6 -15 5 -6 -5z"/>
<path d="M3810 3053 c0 -5 -10 -15 -22 -21 -15 -7 -18 -11 -7 -11 8 -1 20 4
27 11 8 8 15 8 26 -1 11 -9 16 -9 22 1 4 7 3 10 -1 5 -5 -4 -17 0 -27 10 -10
9 -18 12 -18 6z"/>
<path d="M3723 3043 c-13 -2 -23 -8 -23 -13 0 -8 13 -5 70 13 18 7 -15 6 -47
0z"/>
<path d="M3670 3020 c0 -5 5 -10 11 -10 5 0 7 5 4 10 -3 6 -8 10 -11 10 -2 0
-4 -4 -4 -10z"/>
<path d="M3629 3008 c0 -2 -2 -14 -5 -27 -4 -20 -2 -22 11 -11 13 11 13 15 3
22 -9 7 -6 8 10 5 12 -3 20 -1 16 4 -4 8 -33 13 -35 7z"/>
<path d="M3710 2985 c7 -8 17 -15 22 -15 6 0 5 7 -2 15 -7 8 -17 15 -22 15 -6
0 -5 -7 2 -15z"/>
<path d="M3645 2950 c-16 -16 -25 -30 -19 -29 8 0 60 59 52 59 -3 0 -17 -13
-33 -30z"/>
<path d="M3710 2949 c0 -5 5 -7 10 -4 6 3 10 8 10 11 0 2 -4 4 -10 4 -5 0 -10
-5 -10 -11z"/>
<path d="M3675 2939 c-10 -15 3 -25 16 -12 7 7 7 13 1 17 -6 3 -14 1 -17 -5z"/>
<path d="M3634 2904 c-18 -14 -18 -15 4 -4 12 6 22 13 22 15 0 8 -5 6 -26 -11z"/>
<path d="M3580 2880 c-8 -5 -12 -11 -9 -14 3 -3 14 1 25 9 21 16 8 20 -16 5z"/>
<path d="M2218 2883 c-17 -20 -31 -43 -26 -43 2 0 16 14 31 30 16 17 25 30 19
30 -5 0 -16 -8 -24 -17z"/>
<path d="M1998 2779 c17 -5 32 -14 32 -19 0 -6 6 -10 13 -10 6 1 1 10 -12 20
-13 11 -33 20 -45 19 -15 -1 -12 -3 12 -10z"/>
<path d="M1925 2755 c-34 -33 -36 -69 -9 -142 9 -24 20 -43 26 -43 6 0 3 12
-7 26 -26 40 -25 116 3 153 27 37 20 40 -13 6z"/>
<path d="M1967 2763 c-4 -3 -7 -11 -7 -17 0 -6 5 -5 12 2 6 6 9 14 7 17 -3 3
-9 2 -12 -2z"/>
<path d="M2020 2655 c-8 -9 -8 -15 -2 -15 12 0 26 19 19 26 -2 2 -10 -2 -17
-11z"/>
<path d="M3876 2977 c-17 -13 -17 -14 0 -28 11 -8 15 -9 10 -1 -4 6 -3 12 2
12 5 0 9 7 9 15 0 18 1 18 -21 2z"/>
<path d="M3830 2949 c-13 -9 -13 -10 1 -6 9 3 23 0 30 -6 11 -10 11 -9 0 6 -7
9 -14 17 -15 17 0 0 -8 -5 -16 -11z"/>
<path d="M3800 2932 c0 -16 32 -24 44 -11 8 9 8 10 -2 5 -7 -4 -19 -2 -27 4
-9 7 -15 8 -15 2z"/>
<path d="M3796 2868 c-24 -33 -19 -45 5 -14 12 15 19 29 16 32 -3 3 -12 -5
-21 -18z"/>
<path d="M3618 2819 c-15 -15 -15 -19 -3 -19 8 0 19 9 25 20 13 25 1 25 -22
-1z"/>
<path d="M3549 2774 l-24 -26 25 7 c32 10 51 25 44 36 -9 15 -19 11 -45 -17z
m36 6 c-3 -5 -11 -10 -16 -10 -6 0 -7 5 -4 10 3 6 11 10 16 10 6 0 7 -4 4 -10z"/>
<path d="M3727 2773 c-4 -3 -7 -13 -7 -22 1 -13 3 -13 11 2 11 19 8 33 -4 20z"/>
<path d="M3682 2728 c1 -18 3 -27 5 -20 3 6 9 10 13 7 18 -11 18 13 0 30 -18
16 -19 16 -18 -17z"/>
<path d="M3501 2703 c-10 -26 -10 -27 4 -9 8 11 15 23 15 28 0 15 -7 8 -19
-19z"/>
<path d="M3615 2660 c3 -5 8 -10 11 -10 2 0 4 5 4 10 0 6 -5 10 -11 10 -5 0
-7 -4 -4 -10z"/>
<path d="M3631 2636 l-24 -31 28 27 c16 15 27 29 24 31 -2 3 -15 -10 -28 -27z"/>
<path d="M3459 2609 c-1 -8 -1 -19 0 -25 1 -6 -6 -17 -14 -24 -8 -7 -15 -17
-15 -23 0 -6 14 5 30 23 17 19 27 36 23 39 -5 4 -11 10 -15 15 -5 5 -9 3 -9
-5z"/>
<path d="M3510 2603 c0 -6 5 -15 10 -18 6 -4 8 -10 5 -15 -3 -5 -1 -11 5 -15
5 -3 10 -11 10 -16 0 -6 -4 -8 -9 -5 -5 3 -12 -1 -15 -9 -4 -13 -2 -14 14 -5
22 12 26 25 8 36 -7 5 -5 12 8 22 16 12 16 14 2 9 -11 -4 -21 0 -27 11 -6 9
-11 12 -11 5z"/>
<path d="M3555 2560 c3 -5 8 -10 11 -10 2 0 4 5 4 10 0 6 -5 10 -11 10 -5 0
-7 -4 -4 -10z"/>
<path d="M3438 2513 c20 -8 14 -22 -8 -18 -21 4 -27 -9 -10 -20 6 -3 10 -1 10
6 0 7 3 10 6 6 3 -3 3 -15 -1 -27 -6 -20 -8 -20 -19 -4 -12 16 -13 16 -20 -1
-3 -10 -4 -20 -1 -23 3 -3 5 0 5 7 0 7 4 10 10 6 14 -9 0 -37 -16 -31 -8 3
-14 1 -14 -4 0 -16 30 -11 36 5 4 8 10 12 15 9 5 -3 8 0 7 8 -2 7 4 13 14 13
17 0 58 33 58 47 0 4 -5 8 -11 8 -5 0 -7 -5 -3 -11 4 -8 -1 -9 -16 -4 -19 6
-21 4 -15 -15 5 -15 4 -20 -4 -16 -16 10 -14 36 4 42 24 9 18 19 -13 20 -15 1
-21 -1 -14 -3z"/>
<path d="M3290 2811 c0 -5 5 -13 10 -16 6 -3 10 -2 10 4 0 5 -4 13 -10 16 -5
3 -10 2 -10 -4z"/>
<path d="M4736 2613 c-4 -9 -2 -21 4 -27 7 -7 10 -5 10 7 0 9 5 17 11 17 5 0
7 5 4 10 -9 15 -22 12 -29 -7z"/>
<path d="M4896 2467 c3 -10 9 -15 12 -12 3 3 0 11 -7 18 -10 9 -11 8 -5 -6z"/>
<path d="M4703 2443 c-15 -5 -17 -23 -4 -23 5 0 11 7 15 15 3 8 4 15 3 14 -1
0 -8 -3 -14 -6z"/>
<path d="M3289 2583 c-13 -16 -12 -17 4 -4 16 13 21 21 13 21 -2 0 -10 -8 -17
-17z"/>
<path d="M2152 2560 c-24 -32 -28 -44 -11 -38 6 2 9 6 7 10 -2 3 6 15 16 27
11 12 17 23 14 26 -2 3 -14 -9 -26 -25z"/>
<path d="M1975 2500 c-10 -11 -16 -20 -13 -20 3 0 15 9 28 20 13 11 19 20 13
20 -5 0 -18 -9 -28 -20z"/>
<path d="M5023 2250 c-17 -10 -37 -29 -44 -42 -10 -21 -8 -20 19 5 32 31 92
50 113 36 10 -6 5 -9 -16 -10 -29 0 -29 -1 -7 -11 12 -6 22 -17 22 -25 0 -20
18 -16 30 8 9 16 8 25 -6 40 -22 25 -70 24 -111 -1z"/>
<path d="M5033 2215 c-36 -25 -35 -52 3 -74 19 -11 34 -25 34 -31 0 -5 4 -10
10 -10 18 0 -3 31 -31 46 -35 17 -36 30 -7 61 25 26 22 29 -9 8z"/>
<path d="M4948 1993 c-47 -7 -31 -18 27 -18 47 0 53 2 38 13 -9 6 -22 11 -27
11 -6 -1 -23 -4 -38 -6z"/>
<path d="M4988 1914 c-15 -8 -33 -24 -39 -37 -10 -18 -7 -17 14 6 25 26 67 37
67 17 0 -5 -6 -7 -13 -4 -8 3 -19 -1 -25 -9 -9 -11 -6 -13 18 -9 36 5 46 18
30 37 -15 18 -18 18 -52 -1z"/>
<path d="M5062 1857 c-35 -18 -46 -19 -62 -9 -12 7 -20 8 -20 2 0 -5 -8 -10
-17 -11 -10 0 0 -6 22 -13 22 -7 51 -18 65 -25 l25 -12 -24 20 c-13 12 -18 21
-12 21 7 0 29 11 49 25 45 30 32 31 -26 2z"/>
<path d="M4909 1771 c-35 -28 -20 -32 20 -4 19 13 27 23 19 23 -9 0 -26 -9
-39 -19z"/>
<path d="M5085 1613 c-39 -21 -48 -35 -30 -49 19 -14 19 -23 -2 -46 -19 -21
-6 -24 20 -4 9 7 17 22 17 33 0 11 9 32 20 46 25 32 14 40 -25 20z"/>
<path d="M3841 1631 c-22 -14 1 -59 34 -67 36 -9 55 2 55 30 0 38 -53 59 -89
37z m63 -23 c5 -9 7 -20 3 -24 -8 -8 -57 23 -57 37 0 16 42 6 54 -13z"/>
<path d="M2955 2030 c-3 -6 1 -7 9 -4 18 7 21 14 7 14 -6 0 -13 -4 -16 -10z"/>
<path d="M2937 1900 c3 -11 9 -17 15 -14 5 3 4 12 -3 20 -16 19 -18 18 -12 -6z"/>
<path d="M2875 1830 c-3 -5 -2 -10 4 -10 5 0 13 5 16 10 3 6 2 10 -4 10 -5 0
-13 -4 -16 -10z"/>
<path d="M4350 1796 c0 -7 9 -20 21 -27 14 -10 23 -30 29 -69 l8 -55 1 50 c1
34 -5 60 -19 83 -20 33 -40 42 -40 18z"/>
<path d="M4192 1788 c9 -7 22 -26 28 -41 5 -16 15 -25 20 -22 15 9 -24 69 -47
73 -17 4 -17 3 -1 -10z"/>
<path d="M4391 1624 c0 -11 3 -14 6 -6 3 7 2 16 -1 19 -3 4 -6 -2 -5 -13z"/>
<path d="M4491 1480 c-13 -11 -19 -20 -14 -20 6 0 18 9 28 20 23 25 17 25 -14
0z"/>
<path d="M3343 1423 c-12 -2 -33 -17 -47 -33 -28 -33 -25 -62 7 -85 34 -23 41
-17 11 8 -38 33 -28 68 28 95 43 21 43 23 1 15z"/>
<path d="M4012 1398 c-18 -18 -15 -26 16 -53 24 -21 25 -26 15 -44 -20 -32
-15 -37 12 -11 28 27 32 40 10 40 -8 0 -15 7 -15 15 0 8 -6 15 -14 15 -22 0
-30 19 -16 35 15 18 9 20 -8 3z"/>
<path d="M2705 1194 c27 -29 32 -58 13 -70 -8 -5 -9 -2 -4 11 5 15 4 16 -9 5
-22 -18 -18 -32 8 -28 30 4 34 46 7 81 -12 15 -25 27 -30 27 -5 0 2 -12 15
-26z"/>
<path d="M2601 1194 c0 -11 3 -14 6 -6 3 7 2 16 -1 19 -3 4 -6 -2 -5 -13z"/>
<path d="M2553 1156 c-22 -10 -31 -26 -15 -26 10 1 46 29 41 33 -2 2 -14 -2
-26 -7z"/>
<path d="M2606 1132 c-2 -4 5 -29 17 -55 18 -37 27 -47 47 -47 14 0 47 -11 73
-24 39 -19 45 -20 32 -6 -16 17 -15 19 12 23 16 2 6 5 -24 6 -63 1 -98 28 -89
66 5 19 1 25 -26 34 -37 13 -36 13 -42 3z m50 -47 c16 -40 17 -45 5 -45 -8 0
-31 52 -31 71 0 19 12 7 26 -26z"/>
<path d="M2380 1110 c8 -5 24 -10 35 -10 17 0 17 2 5 10 -8 5 -24 10 -35 10
-17 0 -17 -2 -5 -10z"/>
<path d="M2566 1099 c12 -13 27 -35 34 -47 6 -13 14 -22 16 -19 9 8 -28 68
-49 78 l-22 12 21 -24z"/>
<path d="M2490 1045 c0 -2 21 -16 48 -30 26 -15 67 -38 91 -52 28 -17 63 -27
99 -30 l55 -4 -24 20 c-13 11 -18 20 -11 21 7 0 11 4 7 10 -4 6 -15 6 -32 -1
-30 -11 -60 -4 -88 21 -25 23 -145 60 -145 45z"/>
</g>
</svg>
